<svg width="88" height="88" viewBox="0 0 88 88" fill="none" xmlns="http://www.w3.org/2000/svg">
<g clip-path="url(#clip0_15605_4750)">
<path d="M0 43.8311C0 68.0919 19.7276 87.8311 44 87.8311C68.2666 87.8311 88 68.1005 88 43.8311C88 19.5587 68.2579 -0.168945 44 -0.168945C19.7421 -0.168945 0 19.5587 0 43.8311ZM4.49264 43.8311C4.49264 22.0395 22.2113 4.3179 44 4.3179C65.7858 4.3179 83.5074 22.0424 83.5074 43.8311C83.5074 65.6169 65.7858 83.3384 44 83.3384C22.2113 83.3384 4.48685 65.6169 4.48685 43.8311H4.49264Z" fill="white"/>
<path d="M43.9999 85.3938C66.9543 85.3938 85.5625 66.7856 85.5625 43.8312C85.5625 20.8768 66.9543 2.26855 43.9999 2.26855C21.0455 2.26855 2.43726 20.8768 2.43726 43.8312C2.43726 66.7856 21.0455 85.3938 43.9999 85.3938Z" fill="#161082"/>
<path opacity="0.5" d="M43.9999 85.3938C66.9543 85.3938 85.5625 66.7856 85.5625 43.8312C85.5625 20.8768 66.9543 2.26855 43.9999 2.26855C21.0455 2.26855 2.43726 20.8768 2.43726 43.8312C2.43726 66.7856 21.0455 85.3938 43.9999 85.3938Z" fill="url(#paint0_radial_15605_4750)"/>
<path d="M43.9999 85.3938C66.9543 85.3938 85.5625 66.7856 85.5625 43.8312C85.5625 20.8768 66.9543 2.26855 43.9999 2.26855C21.0455 2.26855 2.43726 20.8768 2.43726 43.8312C2.43726 66.7856 21.0455 85.3938 43.9999 85.3938Z" fill="url(#paint1_radial_15605_4750)"/>
<path d="M31.7553 44.2016C31.9405 43.0843 32.6902 42.3288 33.8105 42.3288C34.3065 42.331 34.7816 42.5291 35.1323 42.8798C35.4831 43.2306 35.6811 43.7056 35.6834 44.2016H31.7553ZM38.6795 45.8893C38.8647 42.7051 37.1829 40.0824 33.8105 40.0824C30.9997 40.0824 28.7592 42.1406 28.7592 45.1482C28.7592 48.3238 30.8144 50.1966 33.9987 50.1966C36.0568 50.1966 38.1179 49.2559 38.6795 47.0182H35.8687C35.4982 47.7622 34.9366 48.1356 34.1897 48.1356C32.8755 48.1356 32.1229 47.1977 32.1229 45.8893H38.6795ZM77.4342 49.2588C79.8687 49.2588 80.8066 47.2035 80.8066 45.1424C80.8066 43.0814 79.8658 41.0203 77.4342 41.0203C75.1879 41.0203 74.2529 43.0756 74.2529 45.1424C74.2529 47.2093 75.1879 49.2588 77.4371 49.2588M81.9297 50.0056H80.8066V48.1356C80.2421 49.4469 78.7484 50.1966 77.4342 50.1966C74.6234 50.1966 73.1327 47.7622 73.1327 45.1424C73.1327 42.5198 74.441 40.0853 77.4342 40.0853C78.9337 40.0853 80.2421 40.838 80.8066 42.1406V36.7188H81.9268V50.0114M39.244 40.4616H40.5524L42.9869 48.7059L45.2332 40.4616H46.5416L48.7908 48.7059L51.2253 40.4616H52.7218L49.7287 50.0114H48.4145L45.9829 41.964L43.7337 50.0114H42.4253L39.241 40.4616H39.244ZM62.4626 45.1453C62.4626 47.9532 60.9574 50.1995 57.9642 50.1995C54.9711 50.1995 53.4716 47.9532 53.4716 45.1453C53.4716 42.3374 54.9711 40.0882 57.9642 40.0882C60.775 40.2764 62.4539 42.5198 62.4539 45.1511M54.5918 45.1511C54.5918 47.2064 55.7179 49.2616 57.9642 49.2616C60.2134 49.2616 61.3337 47.2064 61.3337 45.1453C61.3337 43.0843 60.2134 41.0232 57.9642 41.0232C55.7179 41.2143 54.5918 43.2695 54.5918 45.1453M64.1416 40.4616H65.2676V42.7109C65.7974 41.2143 67.236 40.2301 68.8223 40.2793V41.3966C66.7671 41.2143 65.2676 42.9019 65.2676 44.7719V49.8261H64.1445L64.1416 40.4616ZM70.1366 36.9011H71.445V50.0056H70.319V36.9011H70.1366ZM8.72474 45.1424C8.72474 44.0222 9.10105 42.5198 10.5947 42.5198C12.0884 42.5198 12.4676 44.0164 12.4676 45.1424C12.4676 46.2685 12.0913 47.7622 10.5947 47.7622C9.09815 47.7622 8.72474 46.4509 8.72474 45.1424ZM5.54051 45.1424C5.54051 47.9503 7.60447 50.1966 10.5947 50.1966C13.5937 50.1966 15.6547 48.1414 15.6547 45.1424C15.6547 42.3288 13.5937 40.0853 10.5889 40.0853C7.59868 40.2735 5.5376 42.3287 5.5376 45.1453M17.3366 40.4559H20.3326V41.7701C20.8913 40.8322 22.2055 40.2735 23.3258 40.2735C26.51 40.2735 26.6982 42.5198 26.6982 44.0164V50.0085H23.5197V45.5159C23.5197 44.2016 23.6992 42.8961 22.0144 42.8961C20.8971 42.8961 20.3355 43.8311 20.3355 44.9514V50.1995H17.3337V40.4501" fill="white"/>
</g>
<defs>
<radialGradient id="paint0_radial_15605_4750" cx="0" cy="0" r="1" gradientUnits="userSpaceOnUse" gradientTransform="translate(22.0755 17.1251) scale(135.244 135.244)">
<stop stop-color="white" stop-opacity="0.5"/>
<stop offset="0.283" stop-color="#ADABD3" stop-opacity="0.595"/>
<stop offset="0.58" stop-color="#5C58A8" stop-opacity="0.695"/>
<stop offset="0.791" stop-color="#2A248C" stop-opacity="0.766"/>
<stop offset="1" stop-color="#161082" stop-opacity="0.8"/>
</radialGradient>
<radialGradient id="paint1_radial_15605_4750" cx="0" cy="0" r="1" gradientUnits="userSpaceOnUse" gradientTransform="translate(19.3413 15.2935) rotate(52.031) scale(64.671 82.9585)">
<stop stop-color="white" stop-opacity="0.9"/>
<stop offset="0.283" stop-color="#ADABD3" stop-opacity="0.615"/>
<stop offset="0.58" stop-color="#5C58A8" stop-opacity="0.316"/>
<stop offset="0.791" stop-color="#2A248C" stop-opacity="0.104"/>
<stop offset="1" stop-color="#161082" stop-opacity="0"/>
</radialGradient>
<clipPath id="clip0_15605_4750">
<rect width="88" height="88" fill="white"/>
</clipPath>
</defs>
</svg>
